<svg width="22" height="24" viewBox="0 0 22 24" fill="none" xmlns="http://www.w3.org/2000/svg">
<g clip-path="url(#clip0_1544_6716)">
<path d="M11 0.859375C4.92339 0.859375 0 5.8457 0 12C0 18.1543 4.92339 23.1406 11 23.1406C17.0766 23.1406 22 18.1543 22 12C22 5.8457 17.0766 0.859375 11 0.859375ZM16.4024 8.4916L14.5972 17.1076C14.4641 17.7186 14.1048 17.8668 13.6036 17.5793L10.8536 15.5264L9.52742 16.8201C9.38105 16.9684 9.25686 17.0941 8.97298 17.0941L9.16815 14.2596L14.2645 9.59668C14.4863 9.39902 14.2157 9.28672 13.923 9.48438L7.6246 13.5004L4.91008 12.6424C4.32016 12.4537 4.30685 12.0449 5.03427 11.7574L15.6395 7.61562C16.1319 7.43594 16.5621 7.73691 16.4024 8.4916Z" fill="#645CD9"/>
</g>
<defs>
<clipPath id="clip0_1544_6716">
<rect width="22" height="23" fill="white" transform="translate(0 0.5)"/>
</clipPath>
</defs>
</svg>
