<svg width="22" height="24" viewBox="0 0 22 24" fill="none" xmlns="http://www.w3.org/2000/svg">
<g clip-path="url(#clip0_1544_6714)">
<path d="M19.3136 2.73953C18.7444 2.21724 16.4392 0.538243 11.3056 0.516201C11.3056 0.516201 5.24791 0.152993 2.29704 2.86603C0.655653 4.51053 0.0807835 6.91883 0.0147835 9.90595C-0.0512165 12.8931 -0.124869 18.4917 5.26131 20.0135H5.26609L5.26131 22.3317C5.26131 22.3317 5.22591 23.2709 5.84191 23.4597C6.58609 23.6935 7.02609 22.9786 7.7387 22.21C8.12896 21.7874 8.66652 21.1683 9.07496 20.6958C11.4156 20.913 13.776 20.7326 16.0566 20.162L15.9131 20.1927C16.6573 19.9502 20.8679 19.4107 21.549 13.8131C22.2606 8.03433 21.2104 4.38883 19.3136 2.73953ZM19.9372 13.3914C19.3566 18.0633 15.9457 18.3604 15.3182 18.5616C13.9484 18.9105 12.3759 19.1098 10.7565 19.1098C10.2917 19.1098 9.83061 19.0935 9.37435 19.0609L9.43557 19.0647C9.43557 19.0647 7.10357 21.8813 6.37757 22.6135C6.14035 22.8511 5.87922 22.832 5.884 22.3576C5.884 22.048 5.90217 18.507 5.90217 18.507C1.34244 17.2401 1.60644 12.4714 1.66 9.9807C1.71357 7.48999 2.18035 5.44299 3.57017 4.06874C6.06861 1.80037 11.2118 2.13674 11.2118 2.13674C15.5573 2.15495 17.6377 3.46691 18.1217 3.90678C19.723 5.28199 20.5389 8.57099 19.9372 13.3905V13.3914ZM13.7093 9.76124V9.77466C13.7073 9.84929 13.6768 9.92029 13.624 9.97302C13.5712 10.0257 13.5003 10.0562 13.4258 10.058C13.3513 10.0599 13.279 10.033 13.2237 9.98293C13.1684 9.93288 13.1344 9.86347 13.1287 9.78903V9.78808C13.1482 9.58799 13.1241 9.38605 13.0581 9.1962C12.9921 9.00635 12.8858 8.8331 12.7465 8.68842C12.6071 8.54374 12.4382 8.43107 12.2511 8.35818C12.0641 8.28529 11.8636 8.25392 11.6633 8.26624H11.6671C11.5928 8.26047 11.5235 8.22632 11.4736 8.17083C11.4237 8.11535 11.3969 8.04277 11.3989 7.9681C11.4009 7.89343 11.4314 7.82237 11.4842 7.7696C11.5369 7.71682 11.6079 7.68637 11.6824 7.68453H11.6987H11.6977L11.7637 7.68358C12.0308 7.68349 12.295 7.7384 12.54 7.8449C12.785 7.9514 13.0055 8.10722 13.1878 8.30268C13.3702 8.49814 13.5105 8.72907 13.6 8.98114C13.6896 9.2332 13.7264 9.50101 13.7083 9.76795V9.7622L13.7093 9.76124ZM14.619 10.2701C14.6639 8.36495 13.4759 6.87378 11.2204 6.70703C11.1813 6.70581 11.1428 6.69668 11.1073 6.68019C11.0718 6.6637 11.0399 6.64019 11.0137 6.61107C10.9874 6.58195 10.9673 6.54782 10.9546 6.51073C10.9418 6.47364 10.9367 6.43435 10.9395 6.39522C10.9422 6.35609 10.9529 6.31793 10.9707 6.28301C10.9886 6.2481 11.0133 6.21715 11.0434 6.19204C11.0734 6.16693 11.1083 6.14816 11.1458 6.13686C11.1833 6.12556 11.2226 6.12196 11.2616 6.12628H11.2606H11.2769C11.8121 6.12627 12.3418 6.23587 12.8332 6.44837C13.3247 6.66086 13.7676 6.97177 14.1348 7.36199C14.5019 7.75221 14.7856 8.2135 14.9684 8.71755C15.1512 9.2216 15.2292 9.75777 15.1977 10.2931L15.1986 10.2826C15.1935 10.3569 15.1602 10.4263 15.1055 10.4768C15.0509 10.5272 14.979 10.5548 14.9047 10.5538C14.8304 10.5528 14.7593 10.5234 14.706 10.4715C14.6526 10.4196 14.6212 10.3493 14.618 10.2749V10.2672L14.619 10.2701ZM16.7233 10.8729V10.8748C16.7194 10.9491 16.6873 11.0191 16.6336 11.0704C16.5799 11.1218 16.5086 11.1506 16.4344 11.151C16.3601 11.1513 16.2885 11.1232 16.2343 11.0724C16.1801 11.0216 16.1473 10.9519 16.1427 10.8777C16.1197 7.21495 13.6816 5.22066 10.7269 5.19958C10.6888 5.19958 10.6511 5.19207 10.616 5.17747C10.5808 5.16288 10.5488 5.14149 10.5219 5.11453C10.495 5.08756 10.4737 5.05555 10.4591 5.02032C10.4445 4.98509 10.437 4.94733 10.437 4.9092C10.437 4.87107 10.4445 4.83331 10.4591 4.79808C10.4737 4.76285 10.495 4.73084 10.5219 4.70387C10.5488 4.67691 10.5808 4.65552 10.616 4.64093C10.6511 4.62634 10.6888 4.61883 10.7269 4.61883C14.0355 4.64183 16.6946 6.92937 16.7214 10.872L16.7233 10.8729ZM16.2211 15.2793V15.288C15.7371 16.1418 14.8313 17.0848 13.8987 16.7839L13.8901 16.7705C12.2273 16.1575 10.6688 15.2915 9.26913 14.2031L9.30835 14.2319C8.61189 13.6778 7.98009 13.0467 7.42496 12.3507L7.40678 12.3267C6.90414 11.6928 6.45555 11.0176 6.06574 10.3085L6.02748 10.2327C5.56629 9.47098 5.18393 8.66403 4.88635 7.82445L4.85765 7.73053C4.55731 6.79616 5.49374 5.88862 6.35078 5.4037H6.35939C6.528 5.29557 6.73047 5.25348 6.9281 5.28547C7.12574 5.31747 7.30467 5.42132 7.4307 5.57716L7.43165 5.57908C7.43165 5.57908 7.98739 6.2432 8.22557 6.57191C8.44939 6.87762 8.7507 7.36733 8.90661 7.64045C9.024 7.82708 9.07177 8.04927 9.04149 8.26777C9.01122 8.48627 8.90483 8.68701 8.74113 8.83453L8.74017 8.83549L8.20261 9.26674C8.11879 9.34779 8.05402 9.44651 8.01299 9.55574C7.97197 9.66497 7.95571 9.78198 7.96539 9.89828V9.89541C8.23157 10.7841 8.71198 11.5935 9.36423 12.2521C10.0165 12.9108 10.8205 13.3985 11.7054 13.6722L11.7456 13.6827C11.8611 13.6919 11.9772 13.6754 12.0856 13.6345C12.1941 13.5936 12.2922 13.5292 12.373 13.446L12.8035 12.9075C12.9513 12.7427 13.1527 12.6358 13.3718 12.6058C13.5909 12.5758 13.8135 12.6246 14.0001 12.7436L13.9963 12.7417C14.7739 13.1854 15.4463 13.6732 16.0595 14.2261L16.049 14.2165C16.2045 14.3408 16.308 14.5188 16.3392 14.7157C16.3703 14.9125 16.3268 15.1139 16.2173 15.2803L16.2192 15.2774L16.2211 15.2793Z" fill="#645CD9"/>
</g>
<defs>
<clipPath id="clip0_1544_6714">
<rect width="22" height="23" fill="white" transform="translate(0 0.5)"/>
</clipPath>
</defs>
</svg>
