<svg width="203" height="101" viewBox="0 0 203 101" fill="none" xmlns="http://www.w3.org/2000/svg">
<path d="M36.8312 69.4098L35.7812 68.7598L36.4312 67.7098L37.4813 68.3598L36.8312 69.4098ZM38.0812 67.2098L37.0312 66.5598L37.6812 65.5098L38.7313 66.1598L38.0812 67.2098ZM39.4312 65.0598L38.3812 64.4098L39.0312 63.3598L40.0812 64.0098L39.4312 65.0598ZM40.7313 62.8598L39.6812 62.2098L40.3312 61.1598L41.3812 61.8098L40.7313 62.8598ZM42.0812 60.7098L41.0312 60.0098L41.6812 58.9598L42.7312 59.6098L42.0812 60.7098ZM43.3812 58.5098L42.3312 57.8598L42.9812 56.8098L44.0312 57.4598L43.3812 58.5098ZM44.7312 56.3098L43.6812 55.6598L44.3312 54.6098L45.3812 55.2598L44.7312 56.3098ZM46.0312 54.1598L44.9812 53.5098L45.6312 52.4598L46.6812 53.1098L46.0312 54.1598ZM47.3812 51.9598L46.3312 51.3098L46.9812 50.2598L48.0312 50.9098L47.3812 51.9598ZM48.6312 49.8098L47.5812 49.1598L48.2312 48.1098L49.2812 48.7598L48.6312 49.8098ZM49.9812 47.6098L48.9312 46.9598L49.5812 45.9098L50.6312 46.5598L49.9812 47.6098ZM51.2812 45.4598L50.2312 44.8098L50.8812 43.7598L51.9312 44.4098L51.2812 45.4598ZM52.6312 43.2598L51.5812 42.6098L52.2312 41.5598L53.2812 42.2098L52.6312 43.2598ZM53.9312 41.0098L52.8812 40.3598L53.5312 39.3098L54.5812 39.9598L53.9312 41.0098ZM55.2812 38.8598L54.2312 38.2098L54.8812 37.1598L55.9312 37.8098L55.2812 38.8598ZM56.5812 36.6598L55.5312 36.0098L56.1812 34.9598L57.2312 35.6098L56.5812 36.6598ZM57.8312 34.5098L56.7812 33.8598L57.4312 32.8098L58.4812 33.4598L57.8312 34.5098ZM59.1812 32.3098L58.1312 31.6598L58.7812 30.6098L59.8312 31.2598L59.1812 32.3098ZM60.4812 30.1598L59.4312 29.5098L60.0812 28.4598L61.1312 29.1098L60.4812 30.1598ZM61.8312 27.9598L60.7812 27.3098L61.4312 26.2598L62.4812 26.9098L61.8312 27.9598Z" fill="#797AFF"/>
<path d="M61.4825 18.3599C62.9825 15.8599 66.1825 15.1099 68.6825 16.5599C71.1825 18.0099 71.9325 21.2599 70.4825 23.7599C68.9825 26.2599 65.7825 27.0099 63.2825 25.5599C60.7825 24.0599 59.9825 20.8599 61.4825 18.3599Z" fill="#7D7DFF"/>
<path d="M29.1817 71.9099C30.6817 69.4099 33.8817 68.6599 36.3817 70.1099C38.8817 71.6099 39.6317 74.8099 38.1817 77.3099C36.6817 79.8099 33.4817 80.5599 30.9817 79.1099C28.4817 77.6099 27.6817 74.4099 29.1817 71.9099Z" fill="#7D7DFF"/>
<path d="M27.9312 60.7101L27.2812 59.6601L28.4312 59.0101L29.0812 60.0601L27.9312 60.7101ZM30.1312 59.4101L29.4812 58.3601L30.6312 57.7101L31.2812 58.7601L30.1312 59.4101ZM32.3312 58.1101L31.6812 57.0601L32.7313 56.4101L33.3812 57.4601L32.3312 58.1101ZM34.5812 56.8601L33.9312 55.8101L35.0812 55.1601L35.7312 56.2101L34.5812 56.8601ZM36.7812 55.6101L36.1312 54.5601L37.2812 53.9101L37.9312 54.9601L36.7812 55.6101ZM38.9812 54.3601L38.3312 53.2601L39.4812 52.6101L40.1312 53.6601L38.9812 54.3601ZM41.1812 53.0601L40.5312 52.0101L41.6812 51.3601L42.3312 52.4101L41.1812 53.0601ZM43.3812 51.8101L42.7312 50.7601L43.8812 50.1101L44.5312 51.1601L43.3812 51.8101ZM45.5812 50.5101L44.9812 49.4101L46.1312 48.7601L46.7812 49.8101L45.5812 50.5101ZM47.8312 49.2101L47.1812 48.1601L48.3312 47.5101L48.9812 48.5601L47.8312 49.2101ZM50.0312 47.9601L49.3812 46.9101L50.5312 46.2601L51.1812 47.3101L50.0312 47.9601ZM52.2312 46.7101L51.5812 45.6601L52.7312 45.0101L53.3812 46.0601L52.2312 46.7101ZM54.4312 45.4601L53.7812 44.4101L54.9312 43.7601L55.5812 44.8101L54.4312 45.4601ZM56.6312 44.1601L55.9812 43.1101L57.1312 42.4601L57.7812 43.5101L56.6312 44.1601ZM58.8312 42.9101L58.1812 41.8601L59.3312 41.2101L59.9812 42.2601L58.8312 42.9101ZM61.0812 41.6101L60.4312 40.5601L61.5812 39.9101L62.2312 40.9601L61.0812 41.6101ZM63.2812 40.3101L62.6312 39.2601L63.7812 38.6101L64.4312 39.6601L63.2812 40.3101ZM65.4812 39.0601L64.8312 38.0101L65.9812 37.3601L66.6312 38.4101L65.4812 39.0601ZM67.6812 37.8101L67.0312 36.7601L68.1812 36.1101L68.8312 37.1601L67.6812 37.8101ZM69.8812 36.5601L69.2312 35.5101L70.3812 34.8601L71.0312 35.9101L69.8812 36.5601Z" fill="#797AFF"/>
<path d="M74.2789 27.71C76.7789 26.26 79.9789 27.11 81.4289 29.66C82.8789 32.16 82.0289 35.36 79.4789 36.81C76.9789 38.26 73.7789 37.41 72.3289 34.86C70.9289 32.3601 71.7789 29.16 74.2789 27.71Z" fill="#8482DB"/>
<path d="M20.1304 58.9101C22.6304 57.4601 25.8304 58.3101 27.2804 60.8601C28.7304 63.3601 27.8804 66.5601 25.3304 68.0101C22.7804 69.46 19.6304 68.6101 18.1804 66.0601C16.7804 63.5101 17.6304 60.3101 20.1304 58.9101Z" fill="#8482DB"/>
<path d="M25.7344 48.4602V47.2102H26.9844V48.4602H25.7344ZM28.1844 48.4102V47.1602H29.4344V48.4102H28.1844ZM30.6344 48.4102V47.1602H31.8844V48.4102H30.6344ZM33.1344 48.4102V47.1602H34.3844V48.4102H33.1344ZM35.6344 48.4102V47.1602H36.8844V48.4102H35.6344ZM38.0844 48.3602V47.1102H39.3344V48.3602H38.0844ZM40.5344 48.3602V47.1102H41.8344V48.3602H40.5344ZM43.0344 48.3602V47.1102H44.2844V48.3602H43.0344ZM45.4844 48.3602V47.1102H46.7344V48.3602H45.4844ZM47.9844 48.3102V47.0602H49.2344V48.3102H47.9844ZM50.4844 48.3102V47.0602H51.7344V48.3102H50.4844ZM52.9344 48.3102V47.0602H54.1844V48.3102H52.9344ZM55.3844 48.3102V47.0602H56.6344V48.3102H55.3844ZM57.8344 48.2102V46.9602H59.0844V48.2102H57.8344ZM60.3844 48.2102V46.9602H61.6344V48.2102H60.3844ZM62.8344 48.2102V46.9602H64.0844V48.2102H62.8344ZM65.2844 48.2102V46.9602H66.5344V48.2102H65.2844ZM67.7344 48.1602V46.9102H68.9844V48.1602H67.7344ZM70.2844 48.1602V46.9102H71.5344V48.1602H70.2844ZM72.7344 48.1602V46.9102H73.9844V48.1602H72.7344Z" fill="#797AFF"/>
<path d="M81.032 42.3101C83.932 42.3101 86.282 44.6101 86.282 47.5101C86.282 50.41 83.982 52.76 81.082 52.76C78.182 52.76 75.832 50.4601 75.832 47.5601C75.832 44.6601 78.132 42.3101 81.032 42.3101Z" fill="#7D7DFF"/>
<path d="M18.582 42.7101C21.482 42.7101 23.832 45.0101 23.832 47.9101C23.832 50.8101 21.532 53.1601 18.632 53.1601C15.732 53.1601 13.382 50.9101 13.332 48.0101C13.332 45.1101 15.682 42.7601 18.582 42.7101Z" fill="#7D7DFF"/>
<path d="M71.082 60.96L69.932 60.31L70.582 59.26L71.732 59.91L71.082 60.96ZM68.882 59.76L67.732 59.11L68.382 58.06L69.532 58.71L68.882 59.76ZM66.682 58.51L65.532 57.86L66.182 56.81L67.332 57.46L66.682 58.51ZM64.432 57.26L63.282 56.61L63.932 55.56L65.082 56.21L64.432 57.26ZM62.182 56.01L61.032 55.36L61.682 54.31L62.832 54.91L62.182 56.01ZM59.982 54.71L58.832 54.06L59.482 53.01L60.632 53.66L59.982 54.71ZM57.782 53.46L56.632 52.81L57.282 51.76L58.432 52.41L57.782 53.46ZM55.582 52.21L54.432 51.56L55.082 50.51L56.232 51.16L55.582 52.21ZM53.382 51.01L52.232 50.36L52.882 49.31L54.032 49.96L53.382 51.01ZM51.132 49.76L49.982 49.11L50.632 48.06L51.782 48.71L51.132 49.76ZM48.882 48.46L47.732 47.81L48.382 46.76L49.532 47.41L48.882 48.46ZM46.682 47.21L45.532 46.56L46.182 45.51L47.332 46.16L46.682 47.21ZM44.482 45.96L43.332 45.31L43.982 44.26L45.132 44.91L44.482 45.96ZM42.282 44.71L41.132 44.06L41.782 43.01L42.932 43.66L42.282 44.71ZM40.032 43.41L38.882 42.76L39.532 41.71L40.682 42.36L40.032 43.41ZM37.832 42.16L36.682 41.51L37.332 40.46L38.482 41.11L37.832 42.16ZM35.582 40.96L34.432 40.31L35.082 39.26L36.232 39.91L35.582 40.96ZM33.382 39.71L32.232 39.06L32.882 38.01L34.032 38.66L33.382 39.71ZM31.132 38.46L29.982 37.81L30.632 36.76L31.782 37.41L31.132 38.46ZM28.932 37.16L27.832 36.56L28.482 35.51L29.632 36.16L28.932 37.16Z" fill="#797AFF"/>
<path d="M72.4353 60.4599C73.8353 57.9599 77.0353 57.0599 79.5853 58.4599C82.0853 59.8599 82.9853 63.0599 81.5853 65.6099C80.1853 68.1599 76.9853 69.0099 74.4353 67.6099C71.8853 66.1599 70.9853 63.0099 72.4353 60.4599Z" fill="#8482DB"/>
<path d="M18.033 29.7099C19.433 27.2099 22.633 26.3099 25.183 27.7099C27.733 29.1099 28.583 32.3099 27.183 34.8599C25.783 37.4099 22.583 38.2599 20.033 36.8599C17.483 35.4599 16.583 32.2599 18.033 29.7099Z" fill="#8482DB"/>
<path d="M61.6828 69.1102L60.9828 68.0602L62.0328 67.4102L62.7328 68.4602L61.6828 69.1102ZM60.3828 66.9602L59.6828 65.9102L60.7328 65.2602L61.4328 66.3102L60.3828 66.9602ZM59.0328 64.7602L58.3328 63.7102L59.3828 63.0602L60.0828 64.1102L59.0328 64.7602ZM57.6328 62.6102L56.9328 61.5602L57.9828 60.9102L58.6828 61.9602L57.6328 62.6102ZM56.3328 60.4602L55.6328 59.4102L56.6828 58.7602L57.3828 59.8102L56.3328 60.4602ZM54.9828 58.2602L54.2828 57.2102L55.3328 56.5602L56.0328 57.6102L54.9828 58.2602ZM53.6828 56.1102L52.9828 55.0602L54.0328 54.4102L54.7328 55.4602L53.6828 56.1102ZM52.3328 53.9102L51.6328 52.8602L52.6828 52.2102L53.3828 53.2602L52.3328 53.9102ZM51.0328 51.7602L50.3328 50.7102L51.3828 50.0602L52.0828 51.1102L51.0328 51.7602ZM49.6828 49.6102L48.9828 48.5602L50.0328 47.9102L50.7328 48.9602L49.6828 49.6102ZM48.3328 47.4102L47.6328 46.3602L48.6828 45.7102L49.3828 46.7602L48.3328 47.4102ZM46.9828 45.2602L46.2828 44.2102L47.3328 43.5602L48.0328 44.6102L46.9828 45.2602ZM45.6828 43.0602L44.9828 42.0102L46.0328 41.3602L46.7328 42.4102L45.6828 43.0602ZM44.3328 40.9102L43.6328 39.8602L44.6828 39.2102L45.3828 40.2602L44.3328 40.9102ZM43.0328 38.7102L42.3328 37.6102L43.3828 36.9602L44.0828 38.0102L43.0328 38.7102ZM41.6828 36.5602L40.9828 35.5102L42.0328 34.8602L42.7328 35.9102L41.6828 36.5602ZM40.3828 34.4102L39.6828 33.3602L40.7328 32.7102L41.4328 33.7602L40.3828 34.4102ZM39.0328 32.2102L38.3328 31.1102L39.3828 30.4602L40.0828 31.5102L39.0328 32.2102ZM37.6328 30.0602L36.9328 29.0102L37.9828 28.3602L38.6828 29.4102L37.6328 30.0602ZM36.3328 27.8602L35.6328 26.8102L36.6828 26.1602L37.3828 27.2102L36.3328 27.8602Z" fill="#797AFF"/>
<path d="M63.4327 69.8101C65.8827 68.3101 69.1327 69.0601 70.6327 71.5101C72.1327 73.9601 71.3827 77.2101 68.9327 78.7101C66.4827 80.2101 63.2327 79.4601 61.7327 77.0101C60.2327 74.5601 60.9827 71.3101 63.4327 69.8101Z" fill="#7D7DFF"/>
<path d="M30.6814 16.5601C33.1314 15.0601 36.3814 15.8101 37.8814 18.2601C39.3814 20.7101 38.6314 23.9601 36.1814 25.4601C33.7314 26.9601 30.4814 26.2101 28.9814 23.7601C27.4314 21.3101 28.2314 18.1101 30.6814 16.5601Z" fill="#7D7DFF"/>
<path d="M49.8844 28.11C60.6344 28.11 69.3344 36.81 69.3344 47.56C69.3344 58.31 60.6344 67.01 49.8844 67.01C39.1344 67.01 30.4844 58.26 30.4844 47.51C30.4844 36.76 39.1844 28.11 49.8844 28.11Z" fill="#645CD9"/>
<path d="M48.9814 85.36C49.0814 85.16 49.1314 84.31 49.0814 84.01C48.9314 83.06 48.9314 82.86 49.1314 82.31L49.3314 81.81L49.1314 81.11C48.8314 79.91 48.7314 78.86 48.8314 77.76C48.8814 77.26 48.8814 76.76 48.8814 76.61C48.8314 76.16 49.0314 74.86 49.1814 74.36C49.3314 73.91 49.3314 73.71 49.3314 72.96C49.3314 72.21 49.2814 71.96 49.0814 71.01C48.9314 70.36 48.7814 69.56 48.7814 69.11C48.7314 68.36 48.7314 68.36 48.9314 67.91C49.1814 67.41 49.4314 66.06 49.5814 64.96C49.6314 64.31 49.6314 63.81 49.5814 62.61C49.3814 59.66 49.3814 59.46 49.5814 58.31C49.6314 57.76 49.7814 56.86 49.8314 56.31C49.8814 55.76 49.9814 55.31 49.9814 55.26C50.1314 55.06 50.1814 55.41 50.2314 56.21C50.2814 56.66 50.3814 57.46 50.4314 57.96C50.6314 59.01 50.6314 60.56 50.4814 61.86C50.2814 64.01 50.4814 66.41 51.0314 67.71C51.2314 68.21 51.2314 68.26 51.1814 68.91C51.1314 69.31 50.9814 70.16 50.7814 70.91C50.5314 72.16 50.4814 72.31 50.5314 73.01C50.5314 73.51 50.5814 73.91 50.7314 74.21C50.9314 74.76 51.0314 75.56 51.0314 76.31C51.0314 76.71 51.0814 77.26 51.0814 77.66C51.2314 78.46 51.0314 79.76 50.7814 80.96L50.5814 81.71L50.7814 82.26C50.9814 82.81 50.9814 82.81 50.9314 83.46C50.8814 83.76 50.7814 84.21 50.7814 84.41C50.7814 84.66 50.7814 84.81 50.8314 84.96C50.9314 85.36 51.6314 86.41 52.0814 86.56C52.4314 86.71 54.0314 86.71 54.3314 86.51C54.8814 86.16 54.9314 84.76 54.5814 84.31C54.0314 83.76 53.8814 83.31 53.6814 82.96C53.5314 82.66 53.5314 82.66 53.6314 82.16C53.6814 81.76 53.6814 81.51 53.6314 81.01L53.5814 80.36L53.8814 79.56C54.0814 79.11 54.4314 77.81 54.7814 76.61C55.0814 75.41 55.4314 74.21 55.4814 73.96C55.6814 73.31 55.7814 72.11 55.7814 71.61C55.7814 71.11 55.5814 69.71 55.3814 69.01C55.3314 68.71 55.1814 68.06 55.0814 67.61C54.9314 66.86 54.9314 66.66 55.0314 65.66C55.0814 64.26 55.1814 63.96 55.4814 63.21C56.2814 61.36 56.9814 57.76 57.3814 54.11C57.4314 53.31 57.3814 52.01 57.1814 49.51C57.0314 47.56 56.9314 47.01 56.7314 46.06C56.5814 45.51 56.5314 45.01 56.4814 44.36C56.4814 43.86 56.3314 42.91 56.2814 42.26C56.2814 42.26 56.0314 41.41 56.0314 41.11C56.0314 40.96 56.1814 40.61 56.1814 40.61C56.2314 40.26 56.3314 40.41 56.3314 40.41L56.5314 41.06C56.7314 41.56 56.7314 41.86 56.7814 42.71C56.8314 43.41 56.9314 43.86 56.9814 44.16C57.0314 44.41 57.1814 45.06 57.2314 45.56C57.3814 46.81 57.6814 47.56 58.4314 48.61C58.7314 49.06 59.9314 51.31 60.0814 51.81C60.1314 52.06 60.1314 52.21 60.0814 52.46C60.0314 52.66 59.9314 52.91 59.9314 53.01C59.8814 53.26 60.0814 54.26 60.2314 54.91C60.2814 55.16 60.4314 55.66 60.4314 55.96C60.5814 56.76 60.8314 57.91 60.9314 58.11C61.0814 58.26 61.1314 58.31 61.2314 58.31C61.4314 58.31 61.4314 58.31 61.5314 58.56C61.6814 58.86 61.9314 59.11 62.2314 59.11C62.3814 59.11 62.4314 59.16 62.4814 59.16C62.4814 59.21 62.6314 59.31 62.6814 59.31C62.8814 59.46 63.1814 59.11 63.1814 58.81C63.1814 58.61 63.1814 58.61 63.3814 58.61C63.8814 58.76 63.9314 58.41 63.9314 56.26C63.9314 54.61 63.9314 54.56 64.0814 54.66C64.2814 54.91 65.0314 55.41 65.2314 55.41C65.4314 55.41 65.6314 55.21 65.6314 55.01C65.6314 54.96 65.3814 54.56 65.0814 54.21C64.7814 53.81 64.3814 53.21 64.1814 52.86C63.9314 52.46 63.6814 52.11 63.2814 51.81C62.5814 51.16 62.4814 50.91 62.3814 50.46C62.3814 49.96 62.2314 49.46 61.8814 48.01C61.4814 46.66 61.4814 46.61 61.4814 45.61C61.4814 45.06 61.4314 44.36 61.3314 44.16C61.1814 43.71 60.8814 42.81 60.2814 41.46L59.8814 40.51L59.8314 38.76C59.7814 37.71 59.6814 36.76 59.6314 36.41C59.4814 35.61 59.4814 34.31 59.6814 33.71C59.8814 32.96 59.8814 32.66 59.4814 31.56C58.9314 29.91 58.8314 29.71 58.5314 29.41C58.1314 28.91 56.9314 28.26 55.9314 28.06C55.1314 27.86 55.1314 27.86 53.5814 27.01C51.9314 26.01 51.9814 26.06 51.9314 25.36C51.9314 24.81 51.9314 24.66 52.1814 23.86C52.4314 23.16 52.4814 22.96 52.6314 22.96C52.8314 22.96 52.8814 22.81 52.9314 22.46C52.9314 22.26 53.1314 21.96 53.2314 21.71C53.5314 21.21 53.5314 20.66 53.2814 20.56C53.1314 20.51 53.1314 20.51 53.2314 20.01C53.4814 17.56 52.7314 16.16 50.7814 15.61C50.5314 15.16 49.6314 15.11 49.1314 15.21C48.4814 15.36 47.7314 15.76 47.2814 16.21C46.5314 16.96 46.1314 18.16 46.2814 19.51C46.2814 19.91 46.3314 20.26 46.3314 20.41C46.3814 20.56 46.3314 20.56 46.1814 20.56C45.9814 20.56 45.9814 20.56 45.9314 20.86C45.9314 21.11 45.9814 21.31 46.1814 21.66C46.3314 21.96 46.4814 22.31 46.5814 22.41C46.6314 22.56 46.7814 22.66 46.8314 22.66C46.9814 22.66 47.0314 22.86 47.2814 23.46C47.5314 24.16 47.5314 24.41 47.5314 24.91V25.56L47.2814 25.81C47.0314 26.06 44.7814 27.46 44.3814 27.56C44.2314 27.61 43.8814 27.71 43.4814 27.81C42.9814 27.96 42.5814 28.06 42.0314 28.36C41.0814 28.86 40.7814 29.26 40.4314 30.11C40.2814 30.41 40.1314 31.01 39.9814 31.36C39.6814 32.16 39.6814 32.71 39.8314 33.36C40.0314 34.01 40.0314 35.36 39.8814 35.96C39.7314 36.46 39.6814 37.41 39.6814 39.11V40.11L39.0314 41.71C38.1314 43.71 38.1314 43.81 38.1314 45.16C38.1314 46.31 38.1314 46.31 37.7314 47.66C37.5314 48.41 37.2814 49.36 37.2314 49.76C37.0814 50.66 37.0314 50.76 36.6814 51.16C36.1314 51.66 35.6814 52.21 35.4314 52.76C35.2814 53.01 34.9314 53.66 34.6314 54.11C34.3314 54.61 34.0814 55.01 34.1314 55.06C34.2814 55.31 34.8814 55.06 35.4814 54.56L35.7814 54.26V55.46C35.7814 57.61 35.9814 58.36 36.3314 58.36C36.5314 58.36 36.5314 58.36 36.5814 58.66C36.6314 58.86 36.7314 58.96 36.7814 59.06C36.9314 59.11 37.1814 59.06 37.2314 58.91C37.2314 58.86 37.3814 58.86 37.5314 58.86C37.7314 58.86 37.8314 58.81 37.9814 58.66C38.1314 58.51 38.1814 58.41 38.1814 58.41C38.1814 58.36 38.1814 58.26 38.2314 58.16C38.2814 58.01 38.2814 57.96 38.4314 58.01C38.5814 58.16 38.8814 58.06 38.9314 57.81C38.9814 57.76 39.1314 57.01 39.2314 56.21C39.3314 55.41 39.5314 54.46 39.6314 54.06C39.8314 53.16 39.8814 52.71 39.6814 52.21C39.5314 51.81 39.5314 51.81 39.6814 51.41C39.7314 51.16 39.9314 50.71 40.1314 50.46C40.3314 50.16 40.5314 49.71 40.6314 49.41C40.7814 49.16 41.0814 48.66 41.2814 48.36C41.5314 48.06 41.8314 47.46 42.0314 47.16C42.2814 46.61 42.3314 46.41 42.4814 45.66C42.5314 45.16 42.6314 44.66 42.6814 44.46C42.7314 44.31 42.8314 44.01 42.8814 43.76C42.9314 43.56 43.0314 43.01 43.0314 42.51C43.0814 41.86 43.0814 41.51 43.2814 40.91C43.2814 40.91 43.6314 40.31 43.8314 40.31C43.9814 40.31 43.7814 41.31 43.6814 42.36C43.5314 43.11 43.4814 44.11 43.4314 44.56C43.4314 45.06 43.3814 45.61 43.2314 46.06C42.9814 47.01 42.9314 47.56 42.8314 48.31C42.8314 48.71 42.7814 49.51 42.6814 50.16C42.4814 52.26 42.4814 53.51 42.6314 54.56C42.9314 57.16 43.2814 59.11 43.5314 60.11C43.8314 61.31 44.2314 62.51 44.4814 63.16C44.7814 63.91 44.7814 63.91 44.9314 65.36C45.0814 66.56 45.0814 66.61 44.8814 67.56C44.8314 68.06 44.6814 68.71 44.6314 68.96C44.4314 69.51 44.3314 70.86 44.3314 71.56C44.3314 72.26 44.5314 73.51 44.7814 74.21C44.9814 74.76 45.9314 78.26 45.9814 78.61C45.9814 78.76 46.1814 79.16 46.2814 79.56L46.5314 80.26L46.4814 80.91C46.4314 81.41 46.4314 81.66 46.4814 82.06C46.5314 82.51 46.5314 82.51 46.3314 82.86C46.1814 83.06 46.0314 83.36 45.9314 83.51C45.7814 83.66 45.5314 83.96 45.3814 84.21C44.8814 84.76 45.7314 86.11 45.9314 86.21C46.3814 86.41 47.0314 86.56 47.5314 86.56C47.9814 86.56 48.9814 85.36 48.9814 85.36Z" fill="#645CD9" stroke="white" stroke-miterlimit="10"/>
<path d="M122.436 50.3182C122.436 51.6664 122.181 52.8134 121.669 53.7592C121.162 54.705 120.47 55.4274 119.593 55.9265C118.719 56.4215 117.737 56.669 116.647 56.669C115.548 56.669 114.562 56.4195 113.689 55.9205C112.815 55.4214 112.125 54.699 111.618 53.7532C111.111 52.8074 110.857 51.6624 110.857 50.3182C110.857 48.9699 111.111 47.8229 111.618 46.8771C112.125 45.9313 112.815 45.2109 113.689 44.7159C114.562 44.2169 115.548 43.9673 116.647 43.9673C117.737 43.9673 118.719 44.2169 119.593 44.7159C120.47 45.2109 121.162 45.9313 121.669 46.8771C122.181 47.8229 122.436 48.9699 122.436 50.3182ZM119.786 50.3182C119.786 49.4448 119.655 48.7083 119.393 48.1087C119.136 47.509 118.772 47.0542 118.301 46.7443C117.83 46.4344 117.279 46.2795 116.647 46.2795C116.015 46.2795 115.463 46.4344 114.993 46.7443C114.522 47.0542 114.155 47.509 113.894 48.1087C113.636 48.7083 113.507 49.4448 113.507 50.3182C113.507 51.1915 113.636 51.928 113.894 52.5277C114.155 53.1274 114.522 53.5821 114.993 53.892C115.463 54.2019 116.015 54.3569 116.647 54.3569C117.279 54.3569 117.83 54.2019 118.301 53.892C118.772 53.5821 119.136 53.1274 119.393 52.5277C119.655 51.928 119.786 51.1915 119.786 50.3182ZM135.079 47.6921C135.031 47.2051 134.824 46.8268 134.458 46.5572C134.091 46.2875 133.594 46.1527 132.967 46.1527C132.54 46.1527 132.18 46.2131 131.886 46.3338C131.592 46.4505 131.367 46.6135 131.21 46.8228C131.057 47.0321 130.98 47.2695 130.98 47.5352C130.972 47.7565 131.019 47.9497 131.119 48.1147C131.224 48.2797 131.367 48.4226 131.548 48.5433C131.729 48.66 131.938 48.7627 132.176 48.8512C132.413 48.9357 132.667 49.0082 132.936 49.0685L134.047 49.3342C134.586 49.4549 135.081 49.6159 135.532 49.8171C135.983 50.0183 136.373 50.2659 136.703 50.5597C137.033 50.8535 137.289 51.1996 137.47 51.598C137.655 51.9964 137.75 52.4532 137.754 52.9684C137.75 53.725 137.557 54.381 137.174 54.9364C136.796 55.4878 136.249 55.9164 135.532 56.2223C134.82 56.5241 133.961 56.6751 132.954 56.6751C131.956 56.6751 131.087 56.5221 130.347 56.2163C129.61 55.9104 129.034 55.4576 128.62 54.858C128.209 54.2543 127.994 53.5077 127.974 52.6183H130.503C130.532 53.0328 130.65 53.3789 130.86 53.6566C131.073 53.9303 131.357 54.1375 131.711 54.2784C132.069 54.4152 132.474 54.4837 132.924 54.4837C133.367 54.4837 133.751 54.4193 134.077 54.2905C134.407 54.1617 134.663 53.9826 134.844 53.7532C135.025 53.5238 135.116 53.2602 135.116 52.9624C135.116 52.6847 135.033 52.4512 134.868 52.2621C134.707 52.0729 134.47 51.9119 134.156 51.7791C133.846 51.6463 133.466 51.5256 133.015 51.4169L131.669 51.0788C130.626 50.8253 129.803 50.4289 129.199 49.8896C128.596 49.3503 128.296 48.6238 128.3 47.7102C128.296 46.9616 128.495 46.3076 128.898 45.7482C129.304 45.1888 129.862 44.7521 130.57 44.4382C131.278 44.1243 132.083 43.9673 132.985 43.9673C133.902 43.9673 134.703 44.1243 135.387 44.4382C136.076 44.7521 136.611 45.1888 136.993 45.7482C137.376 46.3076 137.573 46.9556 137.585 47.6921H135.079ZM143.041 46.2915V44.1364H153.195V46.2915H149.41V56.5H146.826V46.2915H143.041ZM158.868 56.5V44.1364H167.199V46.2915H161.482V49.2376H166.77V51.3928H161.482V54.3448H167.223V56.5H158.868ZM184.638 50.3182C184.638 51.6664 184.383 52.8134 183.872 53.7592C183.364 54.705 182.672 55.4274 181.795 55.9265C180.921 56.4215 179.939 56.669 178.849 56.669C177.75 56.669 176.764 56.4195 175.891 55.9205C175.017 55.4214 174.327 54.699 173.82 53.7532C173.313 52.8074 173.059 51.6624 173.059 50.3182C173.059 48.9699 173.313 47.8229 173.82 46.8771C174.327 45.9313 175.017 45.2109 175.891 44.7159C176.764 44.2169 177.75 43.9673 178.849 43.9673C179.939 43.9673 180.921 44.2169 181.795 44.7159C182.672 45.2109 183.364 45.9313 183.872 46.8771C184.383 47.8229 184.638 48.9699 184.638 50.3182ZM181.988 50.3182C181.988 49.4448 181.857 48.7083 181.596 48.1087C181.338 47.509 180.974 47.0542 180.503 46.7443C180.032 46.4344 179.481 46.2795 178.849 46.2795C178.217 46.2795 177.666 46.4344 177.195 46.7443C176.724 47.0542 176.358 47.509 176.096 48.1087C175.838 48.7083 175.71 49.4448 175.71 50.3182C175.71 51.1915 175.838 51.928 176.096 52.5277C176.358 53.1274 176.724 53.5821 177.195 53.892C177.666 54.2019 178.217 54.3569 178.849 54.3569C179.481 54.3569 180.032 54.2019 180.503 53.892C180.974 53.5821 181.338 53.1274 181.596 52.5277C181.857 51.928 181.988 51.1915 181.988 50.3182ZM200.916 44.1364V56.5H198.658L193.279 48.7184H193.189V56.5H190.575V44.1364H192.869L198.205 51.9119H198.314V44.1364H200.916Z" fill="#645CD9"/>
</svg>
