<svg width="24" height="24" viewBox="0 0 24 24" fill="none" xmlns="http://www.w3.org/2000/svg">
<path d="M12 21.0409C9.54 21.0409 9.25 21.0279 8.29 20.9859C7.54137 20.9613 6.80244 20.8091 6.105 20.5359C4.89831 20.0663 3.94414 19.1118 3.475 17.9049C3.21231 17.2049 3.07062 16.4654 3.056 15.7179C3 14.7599 3 14.4459 3 12.0049C3 9.53788 3.013 9.24988 3.056 8.29488C3.07094 7.54841 3.21262 6.80989 3.475 6.11088C3.94363 4.90241 4.89935 3.94706 6.108 3.47888C6.80665 3.21509 7.54535 3.07303 8.292 3.05888C9.247 3.00488 9.561 3.00488 12 3.00488C14.48 3.00488 14.765 3.01788 15.71 3.05888C16.4585 3.07315 17.1993 3.21519 17.9001 3.47888C19.1084 3.94759 20.0639 4.90276 20.5331 6.11088C20.8001 6.82008 20.9426 7.57014 20.9541 8.32788C21.01 9.28588 21.01 9.59889 21.01 12.0389C21.01 14.4789 20.996 14.7989 20.9541 15.7459C20.9391 16.4941 20.7971 17.2343 20.534 17.9349C20.0637 19.1426 19.108 20.0975 17.9001 20.5669C17.2003 20.8291 16.4611 20.9708 15.714 20.9859C14.759 21.0409 14.446 21.0409 12 21.0409ZM11.9661 4.58788C9.52 4.58788 9.266 4.59988 8.311 4.64288C7.74099 4.65044 7.17648 4.75563 6.642 4.95388C5.85276 5.25589 5.22823 5.87788 4.923 6.66588C4.72322 7.20618 4.61801 7.77686 4.612 8.35288C4.559 9.32188 4.559 9.57588 4.559 12.0049C4.559 14.4049 4.568 14.6959 4.612 15.6589C4.62096 16.2291 4.7261 16.7937 4.923 17.3289C5.22868 18.1164 5.8531 18.7379 6.642 19.0399C7.17612 19.2395 7.74085 19.3447 8.311 19.3509C9.279 19.4069 9.534 19.4069 11.9661 19.4069C14.4191 19.4069 14.673 19.3949 15.62 19.3509C16.1904 19.344 16.7553 19.2388 17.29 19.0399C18.0744 18.7353 18.695 18.1152 19.0001 17.3309C19.1995 16.7902 19.3046 16.2192 19.3111 15.6429H19.3221C19.365 14.6869 19.3651 14.4319 19.3651 11.9889C19.3651 9.54589 19.354 9.28888 19.3111 8.33388C19.302 7.76434 19.1969 7.2004 19.0001 6.66588C18.6957 5.88046 18.075 5.25918 17.29 4.95388C16.7554 4.75463 16.1904 4.64941 15.62 4.64288C14.653 4.58788 14.4001 4.58788 11.9661 4.58788ZM12 16.6239C10.1299 16.6251 8.44342 15.4996 7.72687 13.7724C7.01031 12.0451 7.40491 10.0562 8.72663 8.73335C10.0484 7.41048 12.0368 7.01416 13.7647 7.72922C15.4926 8.44428 16.6195 10.1299 16.62 11.9999C16.6172 14.551 14.5511 16.6189 12 16.6239ZM12 8.99788C10.3431 8.99788 9 10.3411 9 11.9979C9 13.6548 10.3431 14.9979 12 14.9979C13.6568 14.9979 15 13.6548 15 11.9979C14.9962 10.3426 13.6552 9.00173 12 8.99788ZM16.8 8.28489C16.2055 8.28268 15.7249 7.79947 15.726 7.20489C15.7271 6.61031 16.2094 6.12889 16.804 6.12889C17.3985 6.12889 17.8809 6.6103 17.8821 7.20488C17.8823 7.49175 17.7682 7.76691 17.5652 7.96956C17.3622 8.17222 17.0869 8.28568 16.8 8.28489Z" fill="#645CD9"/>
</svg>
