<svg width="24" height="25" viewBox="0 0 24 25" fill="none" xmlns="http://www.w3.org/2000/svg">
<path d="M12 21.5C10.7369 20.4226 9.56619 19.2415 8.5 17.969C6.9 16.058 5 13.212 5 10.5C4.99858 7.66754 6.70425 5.11338 9.32107 4.02939C11.9379 2.94539 14.9501 3.54523 16.952 5.54899C18.2685 6.8596 19.0059 8.64238 19 10.5C19 13.212 17.1 16.058 15.5 17.969C14.4338 19.2415 13.2631 20.4226 12 21.5ZM12 5.49999C9.23995 5.5033 7.00331 7.73994 7 10.5C7 11.666 7.527 13.685 10.035 16.686C10.6531 17.424 11.309 18.1297 12 18.8C12.691 18.1304 13.3472 17.4259 13.966 16.689C16.473 13.684 17 11.665 17 10.5C16.9967 7.73994 14.7601 5.5033 12 5.49999ZM12 13.5C10.3431 13.5 9 12.1568 9 10.5C9 8.84313 10.3431 7.49999 12 7.49999C13.6569 7.49999 15 8.84313 15 10.5C15 11.2956 14.6839 12.0587 14.1213 12.6213C13.5587 13.1839 12.7957 13.5 12 13.5Z" fill="#645CD9"/>
</svg>
