<svg width="75" height="75" viewBox="0 0 75 75" fill="none" xmlns="http://www.w3.org/2000/svg">
<path d="M18.6406 66.7877C18.6406 65.2502 19.7281 64.2002 21.2656 64.2002C22.8031 64.2002 23.8906 65.2502 23.8906 66.7877C23.8906 68.3252 22.8031 69.3752 21.2656 69.3752C19.7281 69.3752 18.6406 68.3252 18.6406 66.7877ZM22.6156 66.7877C22.6156 65.7002 22.0531 65.1752 21.2656 65.1752C20.4781 65.1752 19.9156 65.7377 19.9156 66.7877C19.9156 67.8377 20.4781 68.4002 21.2656 68.4002C22.0531 68.4002 22.6156 67.8377 22.6156 66.7877Z" fill="#645CD9"/>
<path d="M26.5906 68.0251C26.9281 68.2501 27.3031 68.4001 27.7531 68.4001C28.0906 68.4001 28.4656 68.2876 28.4656 67.9501C28.4656 67.1251 26.3281 67.2376 26.3281 65.6626C26.3281 64.8751 26.9656 64.1626 28.0906 64.1626C28.6531 64.1626 29.1406 64.2751 29.4406 64.4251V65.4751C28.9531 65.2501 28.5406 65.1376 28.1281 65.1376C27.8281 65.1376 27.6031 65.2501 27.6031 65.5501C27.6031 66.3376 29.7406 66.2251 29.7406 67.8376C29.7406 68.7751 28.8781 69.3751 27.7906 69.3751C27.1906 69.3751 26.5531 69.2251 26.1406 68.8876L26.5906 68.0251Z" fill="#645CD9"/>
<path d="M33.6406 65.2128H32.1406V64.2378H36.4156L36.1156 65.2128H34.8031V69.3003H33.6406V65.2128Z" fill="#645CD9"/>
<path d="M38.475 64.2378H41.5125L41.2125 65.2128H39.6375V66.2253H41.2125V67.2003H39.6375V68.2878H41.475V69.2628H38.4375L38.475 64.2378Z" fill="#645CD9"/>
<path d="M43.8047 66.7877C43.8047 65.2502 44.8922 64.2002 46.4297 64.2002C47.9672 64.2002 49.0547 65.2502 49.0547 66.7877C49.0547 68.3252 47.9672 69.3752 46.4297 69.3752C44.8922 69.3752 43.8047 68.3252 43.8047 66.7877ZM47.8172 66.7877C47.8172 65.7002 47.2547 65.1752 46.4672 65.1752C45.6797 65.1752 45.1172 65.7377 45.1172 66.7877C45.1172 67.8377 45.6797 68.4002 46.4672 68.4002C47.2547 68.4002 47.8172 67.8377 47.8172 66.7877Z" fill="#645CD9"/>
<path d="M55.2391 69.3002L53.2141 66.6377C53.0641 66.4127 52.9141 66.2252 52.7266 66.0002C52.7641 66.1877 52.7641 66.5252 52.7641 66.7127V69.3002H51.6016V64.2377H52.7641L54.7516 66.7877C54.9016 67.0127 55.0516 67.2002 55.2016 67.3877C55.2016 67.1252 55.2016 66.7502 55.2016 66.5627V64.2002H56.3641V69.2627H55.2391V69.3002Z" fill="#645CD9"/>
<path d="M27.7484 45.7497L26.9609 45.2622L27.4484 44.4747L28.2359 44.9622L27.7484 45.7497ZM28.6859 44.0997L27.8984 43.6122L28.3859 42.8247L29.1734 43.3122L28.6859 44.0997ZM29.6984 42.4872L28.9109 41.9997L29.3984 41.2122L30.1859 41.6997L29.6984 42.4872ZM30.6734 40.8372L29.8859 40.3497L30.3734 39.5622L31.1609 40.0497L30.6734 40.8372ZM31.6859 39.2247L30.8984 38.6997L31.3859 37.9122L32.1734 38.3997L31.6859 39.2247ZM32.6609 37.5747L31.8734 37.0872L32.3609 36.2997L33.1484 36.7872L32.6609 37.5747ZM33.6734 35.9247L32.8859 35.4372L33.3734 34.6497L34.1609 35.1372L33.6734 35.9247ZM34.6484 34.3122L33.8609 33.8247L34.3484 33.0372L35.1359 33.5247L34.6484 34.3122ZM35.6609 32.6622L34.8734 32.1747L35.3609 31.3872L36.1484 31.8747L35.6609 32.6622ZM36.5984 31.0497L35.8109 30.5622L36.2984 29.7747L37.0859 30.2622L36.5984 31.0497ZM37.6109 29.3997L36.8234 28.9122L37.3109 28.1247L38.0984 28.6122L37.6109 29.3997ZM38.5859 27.7872L37.7984 27.2997L38.2859 26.5122L39.0734 26.9997L38.5859 27.7872ZM39.5984 26.1372L38.8109 25.6497L39.2984 24.8622L40.0859 25.3497L39.5984 26.1372ZM40.5734 24.4497L39.7859 23.9622L40.2734 23.1747L41.0609 23.6622L40.5734 24.4497ZM41.5859 22.8372L40.7984 22.3497L41.2859 21.5622L42.0734 22.0497L41.5859 22.8372ZM42.5609 21.1872L41.7734 20.6997L42.2609 19.9122L43.0484 20.3997L42.5609 21.1872ZM43.4984 19.5747L42.7109 19.0872L43.1984 18.2997L43.9859 18.7872L43.4984 19.5747ZM44.5109 17.9247L43.7234 17.4372L44.2109 16.6497L44.9984 17.1372L44.5109 17.9247ZM45.4859 16.3122L44.6984 15.8247L45.1859 15.0372L45.9734 15.5247L45.4859 16.3122ZM46.4984 14.6622L45.7109 14.1747L46.1984 13.3872L46.9859 13.8747L46.4984 14.6622Z" fill="#797AFF"/>
<path d="M46.2388 7.46232C47.3638 5.58732 49.7638 5.02482 51.6388 6.11232C53.5138 7.19982 54.0763 9.63732 52.9888 11.5123C51.8638 13.3873 49.4638 13.9498 47.5888 12.8623C45.7138 11.7373 45.1138 9.33732 46.2388 7.46232Z" fill="#7D7DFF"/>
<path d="M22.0123 47.6249C23.1373 45.7499 25.5373 45.1874 27.4123 46.2749C29.2873 47.3999 29.8498 49.7999 28.7623 51.6749C27.6373 53.5499 25.2373 54.1124 23.3623 53.0249C21.4873 51.8999 20.8873 49.4999 22.0123 47.6249Z" fill="#7D7DFF"/>
<path d="M21.0734 39.2249L20.5859 38.4374L21.4484 37.9499L21.9359 38.7374L21.0734 39.2249ZM22.7234 38.2499L22.2359 37.4624L23.0984 36.9749L23.5859 37.7624L22.7234 38.2499ZM24.3734 37.2749L23.8859 36.4874L24.6734 35.9999L25.1609 36.7874L24.3734 37.2749ZM26.0609 36.3374L25.5734 35.5499L26.4359 35.0624L26.9234 35.8499L26.0609 36.3374ZM27.7109 35.3999L27.2234 34.6124L28.0859 34.1249L28.5734 34.9124L27.7109 35.3999ZM29.3609 34.4624L28.8734 33.6374L29.7359 33.1499L30.2234 33.9374L29.3609 34.4624ZM31.0109 33.4874L30.5234 32.6999L31.3859 32.2124L31.8734 32.9999L31.0109 33.4874ZM32.6609 32.5499L32.1734 31.7624L33.0359 31.2749L33.5234 32.0624L32.6609 32.5499ZM34.3109 31.5749L33.8609 30.7499L34.7234 30.2624L35.2109 31.0499L34.3109 31.5749ZM35.9984 30.5999L35.5109 29.8124L36.3734 29.3249L36.8609 30.1124L35.9984 30.5999ZM37.6484 29.6624L37.1609 28.8749L38.0234 28.3874L38.5109 29.1749L37.6484 29.6624ZM39.2984 28.7249L38.8109 27.9374L39.6734 27.4499L40.1609 28.2374L39.2984 28.7249ZM40.9484 27.7874L40.4609 26.9999L41.3234 26.5124L41.8109 27.2999L40.9484 27.7874ZM42.5984 26.8124L42.1109 26.0249L42.9734 25.5374L43.4609 26.3249L42.5984 26.8124ZM44.2484 25.8749L43.7609 25.0874L44.6234 24.5999L45.1109 25.3874L44.2484 25.8749ZM45.9359 24.8999L45.4484 24.1124L46.3109 23.6249L46.7984 24.4124L45.9359 24.8999ZM47.5859 23.9249L47.0984 23.1374L47.9609 22.6499L48.4484 23.4374L47.5859 23.9249ZM49.2359 22.9874L48.7484 22.1999L49.6109 21.7124L50.0984 22.4999L49.2359 22.9874ZM50.8859 22.0499L50.3984 21.2624L51.2609 20.7749L51.7484 21.5624L50.8859 22.0499ZM52.5359 21.1124L52.0484 20.3249L52.9109 19.8374L53.3984 20.6249L52.5359 21.1124Z" fill="#797AFF"/>
<path d="M55.842 14.475C57.717 13.3875 60.117 14.025 61.2045 15.9375C62.292 17.8125 61.6545 20.2125 59.742 21.3C57.867 22.3875 55.467 21.75 54.3795 19.8375C53.3295 17.9625 53.967 15.5625 55.842 14.475Z" fill="#8482DB"/>
<path d="M15.2248 37.8749C17.0998 36.7874 19.4998 37.4249 20.5873 39.3374C21.6748 41.2124 21.0373 43.6124 19.1248 44.6999C17.2123 45.7874 14.8498 45.1499 13.7623 43.2374C12.7123 41.3249 13.3498 38.9249 15.2248 37.8749Z" fill="#8482DB"/>
<path d="M19.4219 30.0375V29.1H20.3594V30.0375H19.4219ZM21.2594 30V29.0625H22.1969V30H21.2594ZM23.0969 30V29.0625H24.0344V30H23.0969ZM24.9719 30V29.0625H25.9094V30H24.9719ZM26.8469 30V29.0625H27.7844V30H26.8469ZM28.6844 29.9625V29.025H29.6219V29.9625H28.6844ZM30.5219 29.9625V29.025H31.4969V29.9625H30.5219ZM32.3969 29.9625V29.025H33.3344V29.9625H32.3969ZM34.2344 29.9625V29.025H35.1719V29.9625H34.2344ZM36.1094 29.925V28.9875H37.0469V29.925H36.1094ZM37.9844 29.925V28.9875H38.9219V29.925H37.9844ZM39.8219 29.925V28.9875H40.7594V29.925H39.8219ZM41.6594 29.925V28.9875H42.5969V29.925H41.6594ZM43.4969 29.85V28.9125H44.4344V29.85H43.4969ZM45.4094 29.85V28.9125H46.3469V29.85H45.4094ZM47.2469 29.85V28.9125H48.1844V29.85H47.2469ZM49.0844 29.85V28.9125H50.0219V29.85H49.0844ZM50.9219 29.8125V28.875H51.8594V29.8125H50.9219ZM52.8344 29.8125V28.875H53.7719V29.8125H52.8344ZM54.6719 29.8125V28.875H55.6094V29.8125H54.6719Z" fill="#797AFF"/>
<path d="M60.9 25.4248C63.075 25.4248 64.8375 27.1498 64.8375 29.3248C64.8375 31.4998 63.1125 33.2623 60.9375 33.2623C58.7625 33.2623 57 31.5373 57 29.3623C57 27.1873 58.725 25.4248 60.9 25.4248Z" fill="#7D7DFF"/>
<path d="M14.0625 25.7246C16.2375 25.7246 18 27.4496 18 29.6246C18 31.7996 16.275 33.5621 14.1 33.5621C11.925 33.5621 10.1625 31.8746 10.125 29.6996C10.125 27.5246 11.8875 25.7621 14.0625 25.7246Z" fill="#7D7DFF"/>
<path d="M53.4375 39.4122L52.575 38.9247L53.0625 38.1372L53.925 38.6247L53.4375 39.4122ZM51.7875 38.5122L50.925 38.0247L51.4125 37.2372L52.275 37.7247L51.7875 38.5122ZM50.1375 37.5747L49.275 37.0872L49.7625 36.2997L50.625 36.7872L50.1375 37.5747ZM48.45 36.6372L47.5875 36.1497L48.075 35.3622L48.9375 35.8497L48.45 36.6372ZM46.7625 35.6997L45.9 35.2122L46.3875 34.4247L47.25 34.8747L46.7625 35.6997ZM45.1125 34.7247L44.25 34.2372L44.7375 33.4497L45.6 33.9372L45.1125 34.7247ZM43.4625 33.7872L42.6 33.2997L43.0875 32.5122L43.95 32.9997L43.4625 33.7872ZM41.8125 32.8497L40.95 32.3622L41.4375 31.5747L42.3 32.0622L41.8125 32.8497ZM40.1625 31.9497L39.3 31.4622L39.7875 30.6747L40.65 31.1622L40.1625 31.9497ZM38.475 31.0122L37.6125 30.5247L38.1 29.7372L38.9625 30.2247L38.475 31.0122ZM36.7875 30.0372L35.925 29.5497L36.4125 28.7622L37.275 29.2497L36.7875 30.0372ZM35.1375 29.0997L34.275 28.6122L34.7625 27.8247L35.625 28.3122L35.1375 29.0997ZM33.4875 28.1622L32.625 27.6747L33.1125 26.8872L33.975 27.3747L33.4875 28.1622ZM31.8375 27.2247L30.975 26.7372L31.4625 25.9497L32.325 26.4372L31.8375 27.2247ZM30.15 26.2497L29.2875 25.7622L29.775 24.9747L30.6375 25.4622L30.15 26.2497ZM28.5 25.3122L27.6375 24.8247L28.125 24.0372L28.9875 24.5247L28.5 25.3122ZM26.8125 24.4122L25.95 23.9247L26.4375 23.1372L27.3 23.6247L26.8125 24.4122ZM25.1625 23.4747L24.3 22.9872L24.7875 22.1997L25.65 22.6872L25.1625 23.4747ZM23.475 22.5372L22.6125 22.0497L23.1 21.2622L23.9625 21.7497L23.475 22.5372ZM21.825 21.5622L21 21.1122L21.4875 20.3247L22.35 20.8122L21.825 21.5622Z" fill="#797AFF"/>
<path d="M54.4417 39.0373C55.4917 37.1623 57.8917 36.4873 59.8042 37.5373C61.6792 38.5873 62.3542 40.9873 61.3042 42.8998C60.2542 44.8123 57.8542 45.4498 55.9417 44.3998C54.0292 43.3123 53.3542 40.9498 54.4417 39.0373Z" fill="#8482DB"/>
<path d="M13.6448 15.9748C14.6948 14.0998 17.0948 13.4248 19.0073 14.4748C20.9198 15.5248 21.5573 17.9248 20.5073 19.8373C19.4573 21.7498 17.0573 22.3873 15.1448 21.3373C13.2323 20.2873 12.5573 17.8873 13.6448 15.9748Z" fill="#8482DB"/>
<path d="M46.3812 45.525L45.8563 44.7375L46.6437 44.25L47.1688 45.0375L46.3812 45.525ZM45.4062 43.9125L44.8812 43.125L45.6688 42.6375L46.1937 43.425L45.4062 43.9125ZM44.3937 42.2625L43.8687 41.475L44.6562 40.9875L45.1812 41.775L44.3937 42.2625ZM43.3437 40.65L42.8187 39.8625L43.6063 39.375L44.1312 40.1625L43.3437 40.65ZM42.3687 39.0375L41.8437 38.25L42.6312 37.7625L43.1562 38.55L42.3687 39.0375ZM41.3563 37.3875L40.8313 36.6L41.6187 36.1125L42.1438 36.9L41.3563 37.3875ZM40.3812 35.775L39.8563 34.9875L40.6438 34.5L41.1688 35.2875L40.3812 35.775ZM39.3687 34.125L38.8437 33.3375L39.6312 32.85L40.1562 33.6375L39.3687 34.125ZM38.3938 32.5125L37.8687 31.725L38.6562 31.2375L39.1812 32.025L38.3938 32.5125ZM37.3812 30.9L36.8563 30.1125L37.6438 29.625L38.1688 30.4125L37.3812 30.9ZM36.3687 29.25L35.8437 28.4625L36.6312 27.975L37.1562 28.7625L36.3687 29.25ZM35.3563 27.6375L34.8313 26.85L35.6187 26.3625L36.1438 27.15L35.3563 27.6375ZM34.3812 25.9875L33.8563 25.2L34.6438 24.7125L35.1688 25.5L34.3812 25.9875ZM33.3688 24.375L32.8437 23.5875L33.6312 23.1L34.1562 23.8875L33.3688 24.375ZM32.3938 22.725L31.8688 21.9L32.6562 21.4125L33.1813 22.2L32.3938 22.725ZM31.3812 21.1125L30.8563 20.325L31.6438 19.8375L32.1688 20.625L31.3812 21.1125ZM30.4062 19.5L29.8812 18.7125L30.6688 18.225L31.1937 19.0125L30.4062 19.5ZM29.3938 17.85L28.8688 17.025L29.6562 16.5375L30.1813 17.325L29.3938 17.85ZM28.3437 16.2375L27.8187 15.45L28.6063 14.9625L29.1312 15.75L28.3437 16.2375ZM27.3688 14.5875L26.8438 13.8L27.6312 13.3125L28.1562 14.1L27.3688 14.5875Z" fill="#797AFF"/>
<path d="M47.6975 46.05C49.535 44.925 51.9725 45.4875 53.0975 47.325C54.2225 49.1625 53.66 51.6 51.8225 52.725C49.985 53.85 47.5475 53.2875 46.4225 51.45C45.2975 49.6125 45.86 47.175 47.6975 46.05Z" fill="#7D7DFF"/>
<path d="M23.1361 6.11249C24.9736 4.98749 27.4111 5.54999 28.5361 7.38749C29.6611 9.22499 29.0986 11.6625 27.2611 12.7875C25.4236 13.9125 22.9861 13.35 21.8611 11.5125C20.6986 9.67499 21.2986 7.27499 23.1361 6.11249Z" fill="#7D7DFF"/>
<path d="M37.5344 14.7749C45.5969 14.7749 52.1219 21.2999 52.1219 29.3624C52.1219 37.4249 45.5969 43.9499 37.5344 43.9499C29.4719 43.9499 22.9844 37.3874 22.9844 29.3249C22.9844 21.2624 29.5094 14.7749 37.5344 14.7749Z" fill="#645CD9"/>
<path d="M36.8611 57.7123C36.9361 57.5623 36.9736 56.9248 36.9361 56.6998C36.8236 55.9873 36.8236 55.8373 36.9736 55.4248L37.1236 55.0498L36.9736 54.5248C36.7486 53.6248 36.6736 52.8373 36.7486 52.0123C36.7861 51.6373 36.7861 51.2623 36.7861 51.1498C36.7486 50.8123 36.8986 49.8373 37.0111 49.4623C37.1236 49.1248 37.1236 48.9748 37.1236 48.4123C37.1236 47.8498 37.0861 47.6623 36.9361 46.9498C36.8236 46.4623 36.7111 45.8623 36.7111 45.5248C36.6736 44.9623 36.6736 44.9623 36.8236 44.6248C37.0111 44.2498 37.1986 43.2373 37.3111 42.4123C37.3486 41.9248 37.3486 41.5498 37.3111 40.6498C37.1611 38.4373 37.1611 38.2873 37.3111 37.4248C37.3486 37.0123 37.4611 36.3373 37.4986 35.9248C37.5361 35.5123 37.6111 35.1748 37.6111 35.1373C37.7236 34.9873 37.7611 35.2498 37.7986 35.8498C37.8361 36.1873 37.9111 36.7873 37.9486 37.1623C38.0986 37.9498 38.0986 39.1123 37.9861 40.0873C37.8361 41.6998 37.9861 43.4998 38.3986 44.4748C38.5486 44.8498 38.5486 44.8873 38.5111 45.3748C38.4736 45.6748 38.3611 46.3123 38.2111 46.8748C38.0236 47.8123 37.9861 47.9248 38.0236 48.4498C38.0236 48.8248 38.0611 49.1248 38.1736 49.3498C38.3236 49.7623 38.3986 50.3623 38.3986 50.9248C38.3986 51.2248 38.4361 51.6373 38.4361 51.9373C38.5486 52.5373 38.3986 53.5123 38.2111 54.4123L38.0611 54.9748L38.2111 55.3873C38.3611 55.7998 38.3611 55.7998 38.3236 56.2873C38.2861 56.5123 38.2111 56.8498 38.2111 56.9998C38.2111 57.1873 38.2111 57.2998 38.2486 57.4123C38.3236 57.7123 38.8486 58.4998 39.1861 58.6123C39.4486 58.7248 40.6486 58.7248 40.8736 58.5748C41.2861 58.3123 41.3236 57.2623 41.0611 56.9248C40.6486 56.5123 40.5361 56.1748 40.3861 55.9123C40.2736 55.6873 40.2736 55.6873 40.3486 55.3123C40.3861 55.0123 40.3861 54.8248 40.3486 54.4498L40.3111 53.9623L40.5361 53.3623C40.6861 53.0248 40.9486 52.0498 41.2111 51.1498C41.4361 50.2498 41.6986 49.3498 41.7361 49.1623C41.8861 48.6748 41.9611 47.7748 41.9611 47.3998C41.9611 47.0248 41.8111 45.9748 41.6611 45.4498C41.6236 45.2248 41.5111 44.7373 41.4361 44.3998C41.3236 43.8373 41.3236 43.6873 41.3986 42.9373C41.4361 41.8873 41.5111 41.6623 41.7361 41.0998C42.3361 39.7123 42.8611 37.0123 43.1611 34.2748C43.1986 33.6748 43.1611 32.6998 43.0111 30.8248C42.8986 29.3623 42.8236 28.9498 42.6736 28.2373C42.5611 27.8248 42.5236 27.4498 42.4861 26.9623C42.4861 26.5873 42.3736 25.8748 42.3361 25.3873C42.3361 25.3873 42.1486 24.7498 42.1486 24.5248C42.1486 24.4123 42.2611 24.1498 42.2611 24.1498C42.2986 23.8873 42.3736 23.9998 42.3736 23.9998L42.5236 24.4873C42.6736 24.8623 42.6736 25.0873 42.7111 25.7248C42.7486 26.2498 42.8236 26.5873 42.8611 26.8123C42.8986 26.9998 43.0111 27.4873 43.0486 27.8623C43.1611 28.7998 43.3861 29.3623 43.9486 30.1498C44.1736 30.4873 45.0736 32.1748 45.1861 32.5498C45.2236 32.7373 45.2236 32.8498 45.1861 33.0373C45.1486 33.1873 45.0736 33.3748 45.0736 33.4498C45.0361 33.6373 45.1861 34.3873 45.2986 34.8748C45.3361 35.0623 45.4486 35.4373 45.4486 35.6623C45.5611 36.2623 45.7486 37.1248 45.8236 37.2748C45.9361 37.3873 45.9736 37.4248 46.0486 37.4248C46.1986 37.4248 46.1986 37.4248 46.2736 37.6123C46.3861 37.8373 46.5736 38.0248 46.7986 38.0248C46.9111 38.0248 46.9486 38.0623 46.9861 38.0623C46.9861 38.0998 47.0986 38.1748 47.1361 38.1748C47.2861 38.2873 47.5111 38.0248 47.5111 37.7998C47.5111 37.6498 47.5111 37.6498 47.6611 37.6498C48.0361 37.7623 48.0736 37.4998 48.0736 35.8873C48.0736 34.6498 48.0736 34.6123 48.1861 34.6873C48.3361 34.8748 48.8986 35.2498 49.0486 35.2498C49.1986 35.2498 49.3486 35.0998 49.3486 34.9498C49.3486 34.9123 49.1611 34.6123 48.9361 34.3498C48.7111 34.0498 48.4111 33.5998 48.2611 33.3373C48.0736 33.0373 47.8861 32.7748 47.5861 32.5498C47.0611 32.0623 46.9861 31.8748 46.9111 31.5373C46.9111 31.1623 46.7986 30.7873 46.5361 29.6998C46.2361 28.6873 46.2361 28.6498 46.2361 27.8998C46.2361 27.4873 46.1986 26.9623 46.1236 26.8123C46.0111 26.4748 45.7861 25.7998 45.3361 24.7873L45.0361 24.0748L44.9986 22.7623C44.9611 21.9748 44.8861 21.2623 44.8486 20.9998C44.7361 20.3998 44.7361 19.4248 44.8861 18.9748C45.0361 18.4123 45.0361 18.1873 44.7361 17.3623C44.3236 16.1248 44.2486 15.9748 44.0236 15.7498C43.7236 15.3748 42.8236 14.8873 42.0736 14.7373C41.4736 14.5873 41.4736 14.5873 40.3111 13.9498C39.0736 13.1998 39.1111 13.2373 39.0736 12.7123C39.0736 12.2998 39.0736 12.1873 39.2611 11.5873C39.4486 11.0623 39.4861 10.9123 39.5986 10.9123C39.7486 10.9123 39.7861 10.7998 39.8236 10.5373C39.8236 10.3873 39.9736 10.1623 40.0486 9.97484C40.2736 9.59984 40.2736 9.18734 40.0861 9.11234C39.9736 9.07484 39.9736 9.07484 40.0486 8.69984C40.2361 6.86234 39.6736 5.81234 38.2111 5.39984C38.0236 5.06234 37.3486 5.02484 36.9736 5.09984C36.4861 5.21234 35.9236 5.51234 35.5861 5.84984C35.0236 6.41234 34.7236 7.31234 34.8361 8.32484C34.8361 8.62484 34.8736 8.88734 34.8736 8.99984C34.9111 9.11234 34.8736 9.11234 34.7611 9.11234C34.6111 9.11234 34.6111 9.11234 34.5736 9.33734C34.5736 9.52484 34.6111 9.67484 34.7611 9.93734C34.8736 10.1623 34.9861 10.4248 35.0611 10.4998C35.0986 10.6123 35.2111 10.6873 35.2486 10.6873C35.3611 10.6873 35.3986 10.8373 35.5861 11.2873C35.7736 11.8123 35.7736 11.9998 35.7736 12.3748V12.8623L35.5861 13.0498C35.3986 13.2373 33.7111 14.2873 33.4111 14.3623C33.2986 14.3998 33.0361 14.4748 32.7361 14.5498C32.3611 14.6623 32.0611 14.7373 31.6486 14.9623C30.9361 15.3373 30.7111 15.6373 30.4486 16.2748C30.3361 16.4998 30.2236 16.9498 30.1111 17.2123C29.8861 17.8123 29.8861 18.2248 29.9986 18.7123C30.1486 19.1998 30.1486 20.2123 30.0361 20.6623C29.9236 21.0373 29.8861 21.7498 29.8861 23.0248V23.7748L29.3986 24.9748C28.7236 26.4748 28.7236 26.5498 28.7236 27.5623C28.7236 28.4248 28.7236 28.4248 28.4236 29.4373C28.2736 29.9998 28.0861 30.7123 28.0486 31.0123C27.9361 31.6873 27.8986 31.7623 27.6361 32.0623C27.2236 32.4373 26.8861 32.8498 26.6986 33.2623C26.5861 33.4498 26.3236 33.9373 26.0986 34.2748C25.8736 34.6498 25.6861 34.9498 25.7236 34.9873C25.8361 35.1748 26.2861 34.9873 26.7361 34.6123L26.9611 34.3873V35.2873C26.9611 36.8998 27.1111 37.4623 27.3736 37.4623C27.5236 37.4623 27.5236 37.4623 27.5611 37.6873C27.5986 37.8373 27.6736 37.9123 27.7111 37.9873C27.8236 38.0248 28.0111 37.9873 28.0486 37.8748C28.0486 37.8373 28.1611 37.8373 28.2736 37.8373C28.4236 37.8373 28.4986 37.7998 28.6111 37.6873C28.7236 37.5748 28.7611 37.4998 28.7611 37.4998C28.7611 37.4623 28.7611 37.3873 28.7986 37.3123C28.8361 37.1998 28.8361 37.1623 28.9486 37.1998C29.0611 37.3123 29.2861 37.2373 29.3236 37.0498C29.3611 37.0123 29.4736 36.4498 29.5486 35.8498C29.6236 35.2498 29.7736 34.5373 29.8486 34.2373C29.9986 33.5623 30.0361 33.2248 29.8861 32.8498C29.7736 32.5498 29.7736 32.5498 29.8861 32.2498C29.9236 32.0623 30.0736 31.7248 30.2236 31.5373C30.3736 31.3123 30.5236 30.9748 30.5986 30.7498C30.7111 30.5623 30.9361 30.1873 31.0861 29.9623C31.2736 29.7373 31.4986 29.2873 31.6486 29.0623C31.8361 28.6498 31.8736 28.4998 31.9861 27.9373C32.0236 27.5623 32.0986 27.1873 32.1361 27.0373C32.1736 26.9248 32.2486 26.6998 32.2861 26.5123C32.3236 26.3623 32.3986 25.9498 32.3986 25.5748C32.4361 25.0873 32.4361 24.8248 32.5861 24.3748C32.5861 24.3748 32.8486 23.9248 32.9986 23.9248C33.1111 23.9248 32.9611 24.6748 32.8861 25.4623C32.7736 26.0248 32.7361 26.7748 32.6986 27.1123C32.6986 27.4873 32.6611 27.8998 32.5486 28.2373C32.3611 28.9498 32.3236 29.3623 32.2486 29.9248C32.2486 30.2248 32.2111 30.8248 32.1361 31.3123C31.9861 32.8873 31.9861 33.8248 32.0986 34.6123C32.3236 36.5623 32.5861 38.0248 32.7736 38.7748C32.9986 39.6748 33.2986 40.5748 33.4861 41.0623C33.7111 41.6248 33.7111 41.6248 33.8236 42.7123C33.9361 43.6123 33.9361 43.6498 33.7861 44.3623C33.7486 44.7373 33.6361 45.2248 33.5986 45.4123C33.4486 45.8248 33.3736 46.8373 33.3736 47.3623C33.3736 47.8873 33.5236 48.8248 33.7111 49.3498C33.8611 49.7623 34.5736 52.3873 34.6111 52.6498C34.6111 52.7623 34.7611 53.0623 34.8361 53.3623L35.0236 53.8873L34.9861 54.3748C34.9486 54.7498 34.9486 54.9373 34.9861 55.2373C35.0236 55.5748 35.0236 55.5748 34.8736 55.8373C34.7611 55.9873 34.6486 56.2123 34.5736 56.3248C34.4611 56.4373 34.2736 56.6623 34.1611 56.8498C33.7861 57.2623 34.4236 58.2748 34.5736 58.3498C34.9111 58.4998 35.3986 58.6123 35.7736 58.6123C36.1111 58.6123 36.8611 57.7123 36.8611 57.7123Z" fill="#645CD9" stroke="white" stroke-miterlimit="10"/>
</svg>
