<svg width="24" height="25" viewBox="0 0 24 25" fill="none" xmlns="http://www.w3.org/2000/svg">
<path d="M8.74214 9.18189C7.66901 10.0937 7.27576 11.7567 8.20237 13.0908C9.06948 14.3392 10.1618 15.4313 11.4099 16.298C12.7441 17.2244 14.407 16.8311 15.3187 15.7579L15.3289 15.7626C16.4934 16.3021 17.7304 16.6718 19 16.8603V19.5H18.9989H18.9961C11.0215 19.5113 4.99148 13.4111 5.00001 5.50359V5.5H7.63937L7.63954 5.50117C7.828 6.77065 8.19761 8.00654 8.73714 9.17108L8.74214 9.18189ZM18.9989 21.5H20C20.5523 21.5 21 21.0523 21 20.5V15.9977C21 15.5021 20.637 15.0813 20.1468 15.0086L19.2926 14.8818C18.2123 14.7215 17.1605 14.4069 16.1695 13.9478L15.4166 13.5991C14.9804 13.397 14.462 13.534 14.1826 13.9253L13.8418 14.4024C13.5431 14.8206 12.9728 14.9484 12.5506 14.6552C11.4984 13.9245 10.5761 13.0024 9.84502 11.9499C9.55181 11.5277 9.67955 10.9574 10.0978 10.6587L10.5748 10.3181C10.9661 10.0386 11.1031 9.52021 10.901 9.0839L10.5518 8.33033C10.0927 7.3394 9.77823 6.28774 9.61786 5.20749L9.49104 4.35316C9.41827 3.86296 8.99745 3.5 8.50188 3.5H4.00001C3.44773 3.5 3.00001 3.94772 3.00001 4.5V5.50143C2.99029 14.5079 9.91023 21.5129 18.9989 21.5Z" fill="#645CD9"/>
</svg>
