<svg width="20" height="20" viewBox="0 0 20 20" fill="none" xmlns="http://www.w3.org/2000/svg">
<path d="M0 10.002C0.00117 14.9214 3.57841 19.1101 8.43705 19.881V12.892H5.9V10.002H8.44005V7.80204C8.32645 6.75958 8.68255 5.72064 9.41165 4.96698C10.1407 4.21332 11.1673 3.82306 12.213 3.90204C12.9635 3.91417 13.7121 3.98101 14.453 4.10205V6.56104H13.189C12.7538 6.50405 12.3163 6.64777 11.9998 6.95171C11.6832 7.25566 11.5217 7.68693 11.561 8.124V10.002H14.332L13.889 12.893H11.561V19.881C16.8154 19.0506 20.5001 14.2518 19.9456 8.9611C19.391 3.67041 14.7912 -0.260027 9.47885 0.0172228C4.16636 0.294473 0.00085 4.68235 0 10.002Z" fill="#645CD9"/>
</svg>
